<svg width="25" height="25" viewBox="0 0 25 25" fill="none" xmlns="http://www.w3.org/2000/svg">
<path d="M7 10.6152V14.6152M11 10.6152V14.6152M15 10.6152V14.6152M22.5 13.6152V11.6152M7.3 18.6152H14.7C16.3802 18.6152 17.2202 18.6152 17.862 18.2883C18.4265 18.0006 18.8854 17.5417 19.173 16.9772C19.5 16.3355 19.5 15.4954 19.5 13.8152V11.4152C19.5 9.73508 19.5 8.895 19.173 8.25326C18.8854 7.68878 18.4265 7.22983 17.862 6.94221C17.2202 6.61523 16.3802 6.61523 14.7 6.61523H7.3C5.61984 6.61523 4.77976 6.61523 4.13803 6.94221C3.57354 7.22983 3.1146 7.68878 2.82698 8.25326C2.5 8.895 2.5 9.73508 2.5 11.4152V13.8152C2.5 15.4954 2.5 16.3355 2.82698 16.9772C3.1146 17.5417 3.57354 18.0006 4.13803 18.2883C4.77976 18.6152 5.61984 18.6152 7.3 18.6152Z" stroke="#EDD9AB" stroke-width="2" stroke-linecap="round" stroke-linejoin="round"/>
</svg>
