<svg width="24" height="25" viewBox="0 0 24 25" fill="none" xmlns="http://www.w3.org/2000/svg">
<path d="M7 17.6152L7.48551 20.0428C7.66878 20.9591 7.76041 21.4173 7.99964 21.76C8.2106 22.0622 8.50097 22.3003 8.83869 22.4479C9.22166 22.6152 9.6889 22.6152 10.6234 22.6152H13.3766C14.3111 22.6152 14.7783 22.6152 15.1613 22.4479C15.499 22.3003 15.7894 22.0622 16.0004 21.76C16.2396 21.4173 16.3312 20.9591 16.5145 20.0428L17 17.6152M7 7.61523L7.48551 5.18766C7.66878 4.27133 7.76041 3.81317 7.99964 3.47046C8.2106 3.16824 8.50097 2.9302 8.83869 2.78261C9.22166 2.61523 9.6889 2.61523 10.6234 2.61523H13.3766C14.3111 2.61523 14.7783 2.61523 15.1613 2.78261C15.499 2.9302 15.7894 3.16824 16.0004 3.47046C16.2396 3.81317 16.3312 4.27133 16.5145 5.18766L17 7.61523M12 9.61523V12.6152L13.5 14.1152M19 12.6152C19 16.4812 15.866 19.6152 12 19.6152C8.13401 19.6152 5 16.4812 5 12.6152C5 8.74924 8.13401 5.61523 12 5.61523C15.866 5.61523 19 8.74924 19 12.6152Z" stroke="#EDD9AB" stroke-width="2" stroke-linecap="round" stroke-linejoin="round"/>
</svg>
