<svg width="21" height="20" viewBox="0 0 21 20" fill="none" xmlns="http://www.w3.org/2000/svg">
<path d="M15.6153 13.3582C15.3446 13.6642 15.0606 13.9665 14.7635 14.2635C10.4678 18.5593 5.08585 20.1422 2.7427 17.7991C1.1363 16.1926 1.3752 13.158 3.06847 10.0242M5.38967 6.72526C5.67138 6.40495 5.96772 6.08875 6.27824 5.77824C10.574 1.48247 15.9559 -0.100442 18.2991 2.2427C19.9066 3.85021 19.6662 6.88795 17.9698 10.024M14.7635 5.77824C19.0593 10.074 20.6422 15.4559 18.2991 17.7991C15.9559 20.1422 10.574 18.5593 6.27824 14.2635C1.98247 9.96775 0.399558 4.58585 2.7427 2.2427C5.08585 -0.100442 10.4678 1.48247 14.7635 5.77824ZM11.5001 9.99999C11.5001 10.5523 11.0523 11 10.5001 11C9.94778 11 9.50006 10.5523 9.50006 9.99999C9.50006 9.44771 9.94778 8.99999 10.5001 8.99999C11.0523 8.99999 11.5001 9.44771 11.5001 9.99999Z" stroke="#E4C67F" stroke-width="2" stroke-linecap="round" stroke-linejoin="round"/>
</svg>
