<svg width="17" height="22" viewBox="0 0 17 22" fill="none" xmlns="http://www.w3.org/2000/svg">
<path d="M3.5 16L3.98551 18.4276C4.16878 19.3439 4.26041 19.8021 4.49964 20.1448C4.7106 20.447 5.00097 20.685 5.33869 20.8326C5.72166 21 6.1889 21 7.12337 21H9.87663C10.8111 21 11.2783 21 11.6613 20.8326C11.999 20.685 12.2894 20.447 12.5004 20.1448C12.7396 19.8021 12.8312 19.3439 13.0145 18.4276L13.5 16M3.5 6L3.98551 3.57243C4.16878 2.6561 4.26041 2.19793 4.49964 1.85522C4.7106 1.55301 5.00097 1.31497 5.33869 1.16737C5.72166 1 6.1889 1 7.12337 1H9.87663C10.8111 1 11.2783 1 11.6613 1.16737C11.999 1.31497 12.2894 1.55301 12.5004 1.85522C12.7396 2.19793 12.8312 2.6561 13.0145 3.57243L13.5 6M8.5 8V11L10 12.5M15.5 11C15.5 14.866 12.366 18 8.5 18C4.63401 18 1.5 14.866 1.5 11C1.5 7.13401 4.63401 4 8.5 4C12.366 4 15.5 7.13401 15.5 11Z" stroke="#E4C67F" stroke-width="2" stroke-linecap="round" stroke-linejoin="round"/>
</svg>
