<svg width="19" height="22" viewBox="0 0 19 22" fill="none" xmlns="http://www.w3.org/2000/svg">
<path d="M17.5 18V15H4.5C2.84315 15 1.5 16.3431 1.5 18M6.3 21H14.3C15.4201 21 15.9802 21 16.408 20.782C16.7843 20.5903 17.0903 20.2843 17.282 19.908C17.5 19.4802 17.5 18.9201 17.5 17.8V4.2C17.5 3.07989 17.5 2.51984 17.282 2.09202C17.0903 1.71569 16.7843 1.40973 16.408 1.21799C15.9802 1 15.4201 1 14.3 1H6.3C4.61984 1 3.77976 1 3.13803 1.32698C2.57354 1.6146 2.1146 2.07354 1.82698 2.63803C1.5 3.27976 1.5 4.11984 1.5 5.8V16.2C1.5 17.8802 1.5 18.7202 1.82698 19.362C2.1146 19.9265 2.57354 20.3854 3.13803 20.673C3.77976 21 4.61984 21 6.3 21Z" stroke="#E4C67F" stroke-width="2" stroke-linecap="round" stroke-linejoin="round"/>
</svg>
