<svg width="28" height="24" viewBox="0 0 28 24" fill="none" xmlns="http://www.w3.org/2000/svg">
<path d="M10.2523 13.532C13.0138 13.532 15.2523 11.2934 15.2523 8.53199C15.2523 5.77057 13.0138 3.53199 10.2523 3.53199C7.49092 3.53199 5.25234 5.77057 5.25234 8.53199C5.25234 11.2934 7.49092 13.532 10.2523 13.532Z" fill="#E4C67F"/>
<path d="M10.2523 16.032C6.91484 16.032 0.252342 17.707 0.252342 21.032V22.282C0.252342 22.9695 0.814842 23.532 1.50234 23.532H19.0023C19.6898 23.532 20.2523 22.9695 20.2523 22.282V21.032C20.2523 17.707 13.5898 16.032 10.2523 16.032ZM18.3398 6.99449C18.7398 7.98199 18.7398 9.08199 18.3398 10.0695C18.1023 10.657 18.2023 11.3195 18.6523 11.7695L18.6898 11.807C19.4148 12.532 20.6523 12.382 21.1273 11.4695C22.0773 9.65699 22.0773 7.53199 21.1023 5.64449C20.6273 4.71949 19.3773 4.54449 18.6398 5.28199L18.6273 5.29449C18.2023 5.73199 18.1023 6.40699 18.3398 6.99449ZM22.9773 0.894493C22.4773 1.39449 22.4023 2.16949 22.8148 2.74449C25.2773 6.16949 25.2648 10.757 22.7773 14.307C22.3773 14.8695 22.4648 15.6445 22.9523 16.132L22.9898 16.1695C23.6023 16.782 24.6398 16.732 25.1648 16.0445C28.6023 11.6195 28.6148 5.58199 25.1648 1.01949C24.6398 0.331993 23.5898 0.281993 22.9773 0.894493Z" fill="#E4C67F"/>
</svg>
