<svg width="25" height="24" viewBox="0 0 25 24" fill="none" xmlns="http://www.w3.org/2000/svg">
<path d="M12.5039 13.5185L10.4739 15.5185C10.0139 15.9785 9.65391 16.5485 9.54391 17.1885C9.24391 19.0285 10.6839 20.6185 12.5039 20.6185C14.3239 20.6185 15.7639 19.0285 15.4639 17.1985C15.3539 16.5585 15.0039 15.9785 14.5339 15.5285L12.5039 13.5185Z" fill="#EDD9AB"/>
<path d="M16.0639 7.16852C14.8839 8.63852 12.5039 7.80852 12.5039 5.91852V4.38852C12.5039 3.58852 11.6139 3.10852 10.9539 3.54852C8.62391 5.10852 4.50391 8.58852 4.50391 13.6185C4.50391 16.5385 6.06391 19.0885 8.39391 20.4785C7.68391 19.4585 7.33391 18.1685 7.58391 16.7985C7.77391 15.7585 8.33391 14.8185 9.09391 14.0785L11.8039 11.4085C12.1939 11.0285 12.8139 11.0285 13.2039 11.4085L15.9339 14.0985C16.6739 14.8285 17.2339 15.7485 17.4139 16.7785C17.6639 18.1385 17.3439 19.4185 16.6439 20.4385C18.5339 19.2885 19.9339 17.3785 20.3539 15.1385C20.9639 11.8685 19.5439 8.76852 17.1339 7.03852C16.8039 6.78852 16.3339 6.83852 16.0639 7.16852Z" fill="#EDD9AB"/>
</svg>
