<svg width="150" height="106" viewBox="0 0 150 106" fill="none" xmlns="http://www.w3.org/2000/svg">
<path d="M151 28C151 68.5929 118.093 101.5 77.5 101.5C67.7233 101.5 58.3925 99.5912 49.8598 96.1258C48.2268 95.4626 47.4103 95.131 46.7502 94.983C46.1046 94.8383 45.6268 94.7854 44.9651 94.7853C44.2887 94.7852 43.5519 94.908 42.0783 95.1536L13.0222 99.9963C9.97949 100.503 8.45813 100.757 7.35801 100.285C6.39514 99.8722 5.62786 99.1049 5.21488 98.142C4.74302 97.0419 4.99658 95.5205 5.5037 92.4778L10.3464 63.4217C10.592 61.9481 10.7148 61.2114 10.7147 60.5349C10.7146 59.8733 10.6617 59.3954 10.517 58.7498C10.369 58.0898 10.0374 57.2732 9.37418 55.6402C5.90885 47.1075 4 37.7767 4 28C4 -12.5929 36.9071 -45.5 77.5 -45.5C118.093 -45.5 151 -12.5929 151 28Z" stroke="#0A0A0A" stroke-width="8" stroke-linecap="round" stroke-linejoin="round"/>
</svg>
