<svg width="28" height="24" viewBox="0 0 28 24" fill="none" xmlns="http://www.w3.org/2000/svg">
<path d="M4.27207 3.25C4.27207 1.875 5.39707 0.75 6.77207 0.75C8.14707 0.75 9.27207 1.875 9.27207 3.25C9.27207 4.625 8.14707 5.75 6.77207 5.75C5.39707 5.75 4.27207 4.625 4.27207 3.25ZM15.5221 23.25C14.8221 23.25 14.2471 22.7 14.2096 22L13.6471 10.75L9.27207 9.5H1.77207C1.08457 9.5 0.522072 8.9375 0.522072 8.25C0.522072 7.5625 1.08457 7 1.77207 7H8.02207L15.8471 1.4125C16.3721 1.0375 17.0971 1.125 17.5221 1.6125C17.9971 2.175 17.8971 3.0125 17.2971 3.4375L13.1971 6.375H16.7721L25.6346 1.2625C26.1471 0.9625 26.7971 1.075 27.1846 1.525C27.6346 2.0625 27.5596 2.8625 27.0096 3.2875L17.3971 10.75L16.8346 22C16.7971 22.7 16.2221 23.25 15.5221 23.25Z" fill="#E4C67F"/>
</svg>
