<svg width="20" height="24" viewBox="0 0 20 24" fill="none" xmlns="http://www.w3.org/2000/svg">
<path d="M11.2484 7.71423C10.2609 7.71423 9.46094 8.51423 9.46094 9.50173C9.46094 10.4892 10.2609 11.2892 11.2484 11.2892C12.2359 11.2892 13.0359 10.4892 13.0359 9.50173C13.0359 8.51423 12.2359 7.71423 11.2484 7.71423Z" fill="#E4C67F"/>
<path d="M11.5109 0.751734C6.71094 0.614234 2.76094 4.33924 2.52344 9.05174L0.123438 12.2517C-0.189062 12.6642 0.110938 13.2517 0.623438 13.2517H2.49844V17.0017C2.49844 18.3767 3.62344 19.5017 4.99844 19.5017H6.24844V22.0017C6.24844 22.6892 6.81094 23.2517 7.49844 23.2517H13.7484C14.4359 23.2517 14.9984 22.6892 14.9984 22.0017V17.4017C18.0484 15.9517 20.1234 12.8017 19.9984 9.17673C19.8234 4.65173 16.0234 0.889234 11.5109 0.751734ZM14.9984 9.50173C14.9984 9.66423 14.9859 9.82674 14.9734 9.98924L16.0109 10.8142C16.1109 10.8892 16.1359 11.0142 16.0734 11.1267L15.0734 12.8642C15.0109 12.9767 14.8734 13.0142 14.7734 12.9767L13.5359 12.4767C13.2734 12.6767 12.9984 12.8392 12.6984 12.9642L12.4984 14.2892C12.4859 14.4142 12.3734 14.5017 12.2484 14.5017H10.2484C10.1234 14.5017 10.0234 14.4142 9.99844 14.2892L9.81094 12.9642C9.49844 12.8392 9.22344 12.6767 8.96094 12.4767L7.72344 12.9767C7.61094 13.0142 7.47344 12.9767 7.41094 12.8642L6.41094 11.1267C6.34844 11.0267 6.37344 10.8892 6.47344 10.8142L7.52344 9.98924C7.51094 9.82674 7.49844 9.66423 7.49844 9.50173C7.49844 9.33923 7.52344 9.16423 7.54844 9.01423L6.48594 8.18923C6.38594 8.11423 6.36094 7.98923 6.42344 7.86423L7.42344 6.13923C7.48594 6.02673 7.61094 5.98923 7.72344 6.02673L8.97344 6.52673C9.22344 6.33923 9.51094 6.16423 9.81094 6.03923L9.99844 4.71423C10.0234 4.58923 10.1234 4.50173 10.2484 4.50173H12.2484C12.3734 4.50173 12.4734 4.58923 12.4984 4.71423L12.6859 6.03923C12.9859 6.16423 13.2609 6.32673 13.5234 6.52673L14.7734 6.02673C14.8859 5.98923 15.0234 6.02673 15.0734 6.13923L16.0734 7.86423C16.1359 7.97673 16.1109 8.11423 16.0109 8.18923L14.9484 9.01423C14.9859 9.16423 14.9984 9.32673 14.9984 9.50173Z" fill="#E4C67F"/>
</svg>
