<svg width="25" height="24" viewBox="0 0 25 24" fill="none" xmlns="http://www.w3.org/2000/svg">
<path d="M16.0498 12.5H15.0498L13.5498 15.5L11.5498 9.5L10.0498 12.5H9.0498M12.543 6.13581C10.5436 3.7984 7.20955 3.16964 4.7045 5.31001C2.19945 7.45038 1.84677 11.029 3.814 13.5604C5.29989 15.4724 9.5211 19.311 11.4978 21.0749C11.8612 21.3991 12.0429 21.5613 12.2556 21.6251C12.4403 21.6805 12.6456 21.6805 12.8303 21.6251C13.043 21.5613 13.2247 21.3991 13.5881 21.0749C15.5648 19.311 19.786 15.4724 21.2719 13.5604C23.2391 11.029 22.9295 7.42787 20.3814 5.31001C17.8333 3.19216 14.5423 3.7984 12.543 6.13581Z" stroke="#EDD9AB" stroke-width="2" stroke-linecap="round" stroke-linejoin="round"/>
</svg>
