<svg width="28" height="20" viewBox="0 0 28 20" fill="none" xmlns="http://www.w3.org/2000/svg">
<path d="M7.75 10.625C9.825 10.625 11.5 8.95 11.5 6.875C11.5 4.8 9.825 3.125 7.75 3.125C5.675 3.125 4 4.8 4 6.875C4 8.95 5.675 10.625 7.75 10.625ZM22.75 3.125H15.25C13.875 3.125 12.75 4.25 12.75 5.625V11.875H2.75V1.875C2.75 1.1875 2.1875 0.625 1.5 0.625C0.8125 0.625 0.25 1.1875 0.25 1.875V18.125C0.25 18.8125 0.8125 19.375 1.5 19.375C2.1875 19.375 2.75 18.8125 2.75 18.125V15.625H25.25V18.125C25.25 18.8125 25.8125 19.375 26.5 19.375C27.1875 19.375 27.75 18.8125 27.75 18.125V8.125C27.75 5.3625 25.5125 3.125 22.75 3.125Z" fill="#E4C67F"/>
</svg>
