<svg width="25" height="24" viewBox="0 0 25 24" fill="none" xmlns="http://www.w3.org/2000/svg">
<path d="M8.0498 14C8.0498 14 9.5498 16 12.0498 16C14.5498 16 16.0498 14 16.0498 14M15.0498 9H15.0598M9.0498 9H9.0598M22.0498 12C22.0498 17.5228 17.5727 22 12.0498 22C6.52696 22 2.0498 17.5228 2.0498 12C2.0498 6.47715 6.52696 2 12.0498 2C17.5727 2 22.0498 6.47715 22.0498 12ZM15.5498 9C15.5498 9.27614 15.3259 9.5 15.0498 9.5C14.7737 9.5 14.5498 9.27614 14.5498 9C14.5498 8.72386 14.7737 8.5 15.0498 8.5C15.3259 8.5 15.5498 8.72386 15.5498 9ZM9.5498 9C9.5498 9.27614 9.32595 9.5 9.0498 9.5C8.77366 9.5 8.5498 9.27614 8.5498 9C8.5498 8.72386 8.77366 8.5 9.0498 8.5C9.32595 8.5 9.5498 8.72386 9.5498 9Z" stroke="#EDD9AB" stroke-width="2" stroke-linecap="round" stroke-linejoin="round"/>
</svg>
