<svg width="20" height="14" viewBox="0 0 20 14" fill="none" xmlns="http://www.w3.org/2000/svg">
<path d="M4 0.0166016H8C8.28595 0.0166016 8.55768 0.0565438 8.81543 0.135742L9.06836 0.227539C9.39998 0.368477 9.70721 0.563631 9.98926 0.8125L10 0.822266L10.0107 0.8125C10.2223 0.62585 10.4481 0.469675 10.6875 0.34375L10.9316 0.227539C11.2627 0.0868588 11.6189 0.0166016 12 0.0166016H16C16.829 0.0166016 17.5331 0.306546 18.1133 0.886719C18.6935 1.46689 18.9834 2.17104 18.9834 3V5.7998H18.9756L18.9883 5.8125C19.2868 6.09443 19.5275 6.41743 19.71 6.78223C19.892 7.14636 19.9834 7.55233 19.9834 8V13C19.9834 13.5431 19.5431 13.9834 19 13.9834C18.4569 13.9834 18.0166 13.5431 18.0166 13V11.9834H1.9834V13C1.9834 13.5431 1.54308 13.9834 1 13.9834C0.45692 13.9834 0.0166016 13.5431 0.0166016 13V8C0.0166016 7.55233 0.107973 7.14636 0.290039 6.78223C0.47247 6.41743 0.713213 6.09443 1.01172 5.8125L1.0166 5.81738V3C1.0166 2.27475 1.23857 1.64507 1.68262 1.11035L1.88672 0.886719C2.46689 0.306546 3.17104 0.0166016 4 0.0166016ZM3 6.9834C2.71247 6.9834 2.47034 7.08044 2.27539 7.27539C2.08044 7.47034 1.9834 7.71247 1.9834 8V10.0166H18.0166V8C18.0166 7.71247 17.9196 7.47034 17.7246 7.27539C17.5297 7.08044 17.2875 6.9834 17 6.9834H3ZM4 1.9834C3.71247 1.9834 3.47034 2.08044 3.27539 2.27539C3.08044 2.47034 2.9834 2.71247 2.9834 3V5.0166H9.0166V3C9.0166 2.71247 8.91956 2.47034 8.72461 2.27539C8.52966 2.08044 8.28753 1.9834 8 1.9834H4ZM12 1.9834C11.7125 1.9834 11.4703 2.08044 11.2754 2.27539C11.0804 2.47034 10.9834 2.71247 10.9834 3V5.0166H17.0166V3C17.0166 2.71247 16.9196 2.47034 16.7246 2.27539C16.5297 2.08044 16.2875 1.9834 16 1.9834H12Z" fill="#EDD9AB" stroke="#EDD9AB" stroke-width="0.0333333"/>
</svg>
