<svg width="25" height="24" viewBox="0 0 25 24" fill="none" xmlns="http://www.w3.org/2000/svg">
<path d="M13.5 20C13.2167 20 12.9792 19.9042 12.7875 19.7125C12.5958 19.5208 12.5 19.2833 12.5 19V15C12.5 14.7167 12.5958 14.4792 12.7875 14.2875C12.9792 14.0958 13.2167 14 13.5 14H16C16.2833 14 16.5208 14.0958 16.7125 14.2875C16.9042 14.4792 17 14.7167 17 15V19C17 19.2833 16.9042 19.5208 16.7125 19.7125C16.5208 19.9042 16.2833 20 16 20H13.5ZM14 18.5H15.5V15.5H14V18.5ZM18.5 22C17.9477 22 17.5 21.5523 17.5 21V19.25C17.5 18.9667 17.5958 18.7292 17.7875 18.5375C17.9792 18.3458 18.2167 18.25 18.5 18.25H20.5V17.5H18.25C17.8358 17.5 17.5 17.1642 17.5 16.75C17.5 16.3358 17.8358 16 18.25 16H21C21.2833 16 21.5208 16.0958 21.7125 16.2875C21.9042 16.4792 22 16.7167 22 17V18.75C22 19.0333 21.9042 19.2708 21.7125 19.4625C21.5208 19.6542 21.2833 19.75 21 19.75H19V20.5H21.25C21.6642 20.5 22 20.8358 22 21.25C22 21.6642 21.6642 22 21.25 22H18.5ZM10.5 20.8297C10.5 21.4268 9.97744 21.8969 9.39781 21.7536C7.83999 21.3684 6.52822 20.5547 5.4625 19.3125C4.15417 17.7875 3.5 15.95 3.5 13.8C3.5 12.1333 4.1625 10.3208 5.4875 8.3625C6.70438 6.56397 8.4941 4.62838 10.8567 2.55573C11.225 2.23261 11.7752 2.23204 12.1438 2.55478C14.0433 4.21759 15.5745 5.79933 16.7375 7.3C17.6761 8.51112 18.3749 9.66944 18.8339 10.7749C19.085 11.3799 18.61 12 17.955 12H17.885C17.4598 12 17.0856 11.729 16.9119 11.3409C16.5254 10.4768 15.9547 9.55482 15.2 8.575C14.25 7.34167 13.0167 6.03333 11.5 4.65C9.51667 6.46667 8.02083 8.14167 7.0125 9.675C6.00417 11.2083 5.5 12.5833 5.5 13.8C5.5 15.4 5.9625 16.7625 6.8875 17.8875C7.6326 18.7937 8.55883 19.4106 9.66619 19.7383C10.1383 19.8779 10.5 20.2877 10.5 20.78V20.8297Z" fill="#EDD9AB"/>
</svg>
