<svg width="24" height="24" viewBox="0 0 24 24" fill="none" xmlns="http://www.w3.org/2000/svg">
<path d="M6.5 3.81818C5.75 3.81818 5.14583 4.19697 4.6875 4.95455C4.22917 5.71212 4 6.54545 4 7.45455C4 8.40909 4.14583 9.25379 4.4375 9.98864C4.72917 10.7235 5 11.2727 5.25 11.6364L8 11.1364C8.21667 10.6515 8.4375 10.0985 8.6625 9.47727C8.8875 8.85606 9 8.18182 9 7.45455C9 6.54545 8.77083 5.71212 8.3125 4.95455C7.85417 4.19697 7.25 3.81818 6.5 3.81818ZM7.875 15.6364C8.19167 15.6364 8.45833 15.5303 8.675 15.3182C8.89167 15.1061 9 14.8106 9 14.4318C9 14.1742 8.93333 13.9091 8.8 13.6364C8.66667 13.3636 8.53333 13.1212 8.4 12.9091L6 13.3636C6 13.9697 6.14583 14.5 6.4375 14.9545C6.72917 15.4091 7.20833 15.6364 7.875 15.6364ZM17.5 8.36364C16.75 8.36364 16.1458 8.74242 15.6875 9.5C15.2292 10.2576 15 11.0909 15 12C15 12.7273 15.1125 13.3977 15.3375 14.0114C15.5625 14.625 15.7833 15.1818 16 15.6818L18.75 16.1818C19 15.8182 19.2708 15.2727 19.5625 14.5455C19.8542 13.8182 20 12.9697 20 12C20 11.0909 19.7708 10.2576 19.3125 9.5C18.8542 8.74242 18.25 8.36364 17.5 8.36364ZM16.125 20.1818C16.7917 20.1818 17.2708 19.9545 17.5625 19.5C17.8542 19.0455 18 18.5152 18 17.9091L15.6 17.4545C15.4667 17.6667 15.3333 17.9091 15.2 18.1818C15.0667 18.4545 15 18.7197 15 18.9773C15 19.2803 15.1042 19.5568 15.3125 19.8068C15.5208 20.0568 15.7917 20.1818 16.125 20.1818ZM7.875 17.4545C6.59167 17.4545 5.61667 17.0227 4.95 16.1591C4.28333 15.2955 3.96667 14.3258 4 13.25L3.55 12.6364C3.36667 12.3788 3.0625 11.7955 2.6375 10.8864C2.2125 9.97727 2 8.83333 2 7.45455C2 5.89394 2.425 4.5947 3.275 3.55682C4.125 2.51894 5.2 2 6.5 2C7.91667 2 9.02083 2.57197 9.8125 3.71591C10.6042 4.85985 11 6.10606 11 7.45455C11 8.33333 10.8667 9.14394 10.6 9.88636C10.3333 10.6288 10.1 11.2273 9.9 11.6818L10.1 11.9773C10.2333 12.1894 10.4167 12.5265 10.65 12.9886C10.8833 13.4508 11 13.9318 11 14.4318C11 15.2955 10.7042 16.0152 10.1125 16.5909C9.52083 17.1667 8.775 17.4545 7.875 17.4545ZM16.125 22C15.225 22 14.4792 21.7121 13.8875 21.1364C13.2958 20.5606 13 19.8409 13 18.9773C13 18.4773 13.1167 17.9962 13.35 17.5341C13.5833 17.072 13.7667 16.7348 13.9 16.5227L14.1 16.2273C13.9 15.7727 13.6667 15.1742 13.4 14.4318C13.1333 13.6894 13 12.8788 13 12C13 10.6515 13.3958 9.4053 14.1875 8.26136C14.9792 7.11742 16.0833 6.54545 17.5 6.54545C18.8 6.54545 19.875 7.06439 20.725 8.10227C21.575 9.14015 22 10.4394 22 12C22 13.3788 21.7875 14.5189 21.3625 15.4205C20.9375 16.322 20.6333 16.9015 20.45 17.1591L20 17.7955C20.0167 18.8712 19.6958 19.8409 19.0375 20.7045C18.3792 21.5682 17.4083 22 16.125 22Z" fill="#EDD9AB"/>
</svg>
